<svg width="140" height="88" viewBox="0 0 140 88" fill="none" xmlns="http://www.w3.org/2000/svg">
<g filter="url(#filter0_d_100_677)">
<path d="M20.6391 47C11.4496 47 4 39.5269 4 30.3084C4 21.0899 11.4496 13.6168 20.6391 13.6168C22.6316 13.6168 24.5424 13.9682 26.3131 14.6125C29.8068 6.03999 38.2032 0 48.0059 0C60.9438 0 71.432 10.5213 71.432 23.5C71.432 24.0717 71.4116 24.6387 71.3716 25.2002C75.284 27.0074 78 30.9752 78 35.5794C78 41.8868 72.9029 47 66.6154 47H20.6391Z" fill="white"/>
<path d="M22.5 51.6551C22.5 65.9923 34.1226 77.6149 48.4598 77.6149H116.046C126.117 77.6149 134.282 69.4505 134.282 59.3793C134.282 52.3938 130.354 46.3285 124.592 43.2664C124.615 42.7397 124.626 42.2102 124.626 41.6781C124.626 21.8308 108.537 5.74133 88.6897 5.74133C74.1472 5.74133 61.6255 14.3789 55.9689 26.7984C53.5902 26.0807 51.0688 25.6954 48.4598 25.6954C34.1226 25.6954 22.5 37.3179 22.5 51.6551Z" fill="white" stroke="white" stroke-width="3"/>
</g>
<defs>
<filter id="filter0_d_100_677" x="0" y="0" width="139.781" height="87.1149" filterUnits="userSpaceOnUse" color-interpolation-filters="sRGB">
<feFlood flood-opacity="0" result="BackgroundImageFix"/>
<feColorMatrix in="SourceAlpha" type="matrix" values="0 0 0 0 0 0 0 0 0 0 0 0 0 0 0 0 0 0 127 0" result="hardAlpha"/>
<feOffset dy="4"/>
<feGaussianBlur stdDeviation="2"/>
<feComposite in2="hardAlpha" operator="out"/>
<feColorMatrix type="matrix" values="0 0 0 0 0 0 0 0 0 0 0 0 0 0 0 0 0 0 0.25 0"/>
<feBlend mode="normal" in2="BackgroundImageFix" result="effect1_dropShadow_100_677"/>
<feBlend mode="normal" in="SourceGraphic" in2="effect1_dropShadow_100_677" result="shape"/>
</filter>
</defs>
</svg>
