<svg width="28" height="28" viewBox="0 0 28 28" fill="none" xmlns="http://www.w3.org/2000/svg">
<path fill-rule="evenodd" clip-rule="evenodd" d="M9.44766 0.0639434C7.40449 0.45142 5.74169 1.96148 5.1951 3.9259C5.02417 4.54036 4.95206 5.29895 5.03265 5.63508C5.15844 6.15945 5.7627 6.56943 6.25375 6.46346C6.83771 6.33746 7.09662 6.01079 7.17108 5.30595C7.23597 4.69171 7.34316 4.31534 7.58433 3.85447C7.94583 3.16375 8.67565 2.55706 9.43098 2.31929C9.9902 2.14331 10.814 2.14851 11.3729 2.3316C12.6789 2.75947 13.5735 3.97855 13.5842 5.34537C13.5888 5.91681 13.5032 6.2894 13.2446 6.82324C12.8938 7.54783 12.1244 8.19804 11.2935 8.47199C11.1213 8.52881 9.97872 8.55038 5.9316 8.57315C0.270318 8.60506 0.653807 8.5801 0.312667 8.93938C-0.205691 9.48532 -0.0614656 10.3164 0.611568 10.6617C0.811656 10.7643 0.971474 10.7669 6.08294 10.752L11.3483 10.7367L11.8289 10.586C13.4265 10.0848 14.5787 9.11355 15.2581 7.69507C15.8866 6.38288 15.9471 4.79658 15.4207 3.42911C15.0869 2.56193 14.3688 1.62124 13.5982 1.04175C13.151 0.705449 12.2711 0.289237 11.7039 0.145719C11.0922 -0.0090744 10.0347 -0.0473896 9.44766 0.0639434ZM21.7073 4.35815C19.6525 4.73095 18.0046 6.21632 17.422 8.22076C17.2707 8.7414 17.1863 9.61094 17.2527 9.96508C17.2982 10.2078 17.62 10.5854 17.8711 10.6905C18.349 10.8907 18.9451 10.6996 19.218 10.2589C19.3449 10.054 19.3813 9.91527 19.418 9.49687C19.4931 8.64102 19.778 8.00066 20.326 7.45659C20.9606 6.82652 21.5934 6.54469 22.4584 6.50708C23.449 6.46406 24.154 6.73571 24.8497 7.42851C25.6868 8.26219 25.9958 9.34766 25.712 10.4579C25.4327 11.5503 24.6289 12.3991 23.5221 12.7705C23.2358 12.8666 22.7804 12.8728 14.166 12.8989L5.11089 12.9263L4.90205 13.0562C4.78715 13.1276 4.62711 13.286 4.54641 13.408C4.42456 13.5922 4.39962 13.691 4.39962 13.9897C4.39962 14.4208 4.53837 14.6873 4.8811 14.9141L5.10291 15.061H14.2714H23.44L23.9744 14.9134C28.0074 13.7994 29.3531 8.84026 26.4236 5.88796C25.7498 5.20896 24.8852 4.70523 23.9753 4.46143C23.5025 4.33477 22.1705 4.27413 21.7073 4.35815ZM0.624371 17.3134C-0.203174 17.7529 -0.203174 18.836 0.624371 19.2942C0.774943 19.3776 1.54279 19.3874 9.89834 19.4125C18.5741 19.4386 19.0212 19.4447 19.2817 19.5407C20.1399 19.857 20.7919 20.4247 21.1569 21.1734C21.4174 21.7077 21.4976 22.0516 21.4976 22.6331C21.4976 23.4963 21.2044 24.1898 20.5625 24.8446C20.2258 25.188 20.06 25.309 19.6871 25.4831C18.6959 25.946 17.6773 25.9163 16.7431 25.3974C16.2884 25.1447 15.7246 24.577 15.4914 24.1367C15.2805 23.7382 15.0961 23.062 15.0961 22.6862C15.0961 21.6813 14.0112 21.1487 13.2907 21.7999C12.9748 22.0854 12.8837 22.3753 12.9265 22.9584C13.0679 24.8857 14.1773 26.5567 15.8895 27.421C18.607 28.7928 21.8965 27.6422 23.1968 24.8653C23.5725 24.063 23.6594 23.6249 23.6545 22.5598C23.6506 21.7098 23.6373 21.5868 23.5009 21.1387C23.2036 20.1615 22.7156 19.3659 21.9987 18.6893C21.3476 18.0748 20.6754 17.6866 19.7742 17.4046L19.2817 17.2504L10.0351 17.2383C1.66754 17.2274 0.772918 17.2346 0.624371 17.3134Z" fill="#D9D9D9"/>
</svg>
