<svg width="26" height="29" viewBox="0 0 26 29" fill="none" xmlns="http://www.w3.org/2000/svg">
<path fill-rule="evenodd" clip-rule="evenodd" d="M12.8122 3.08526C11.7614 4.8027 10.8416 6.33854 10.7681 6.49821C10.4283 7.23733 10.3247 8.23655 10.4999 9.08599C10.6124 9.63095 11.0042 10.4356 11.3764 10.8857C11.9543 11.5846 12.8403 12.1288 13.7464 12.3415C14.7514 12.5774 15.9791 12.4116 16.849 11.9227C18.3632 11.0715 19.2639 9.34751 19.0416 7.72618C18.9152 6.80483 18.7866 6.55291 16.7218 3.18358C15.6616 1.45336 14.778 0.0208475 14.7584 0.000227989C14.7387 -0.0204483 13.863 1.36787 12.8122 3.08526ZM15.9095 5.15806C16.5304 6.17602 17.0835 7.10941 17.1385 7.23233C17.5127 8.06762 17.3251 9.16744 16.6858 9.88804C15.943 10.7252 14.6653 10.986 13.6466 10.5084C12.47 9.95695 11.8757 8.65513 12.2547 7.46006C12.3236 7.2429 12.7901 6.42442 13.5366 5.21128C14.182 4.16219 14.7259 3.30463 14.7453 3.3056C14.7647 3.3065 15.2886 4.14015 15.9095 5.15806ZM3.46236 12.4037C2.04541 14.6529 0.788418 16.676 0.669099 16.8995C-0.390067 18.883 -0.177308 21.3766 1.20473 23.1761C2.04327 24.268 3.19825 25.0299 4.55545 25.3865C5.03898 25.5135 5.23437 25.5334 6.03863 25.5369C6.83426 25.5405 7.03788 25.5222 7.4821 25.4076C9.29967 24.9385 10.6808 23.8482 11.4848 22.2477C12.3056 20.6136 12.3438 18.7793 11.5905 17.1704C11.417 16.7997 6.26326 8.54477 6.10214 8.37936C6.05536 8.33136 5.35954 9.39215 3.46236 12.4037ZM7.99862 14.5949C9.00598 16.1968 9.89505 17.6331 9.97436 17.7867C10.3657 18.5444 10.4991 19.7984 10.2768 20.6288C9.93534 21.904 8.90929 23.0719 7.71072 23.5498C6.5866 23.998 5.27698 23.957 4.17972 23.4394C3.31971 23.0336 2.57027 22.2969 2.16015 21.4541C1.62863 20.362 1.59146 19.0998 2.05838 17.9986C2.14597 17.792 3.07736 16.2567 4.12814 14.587C5.54567 12.3345 6.05519 11.5681 6.10283 11.6167C6.13821 11.6528 6.99127 12.993 7.99862 14.5949ZM18.2249 14.4217C14.1699 20.8479 14.3147 20.599 14.042 21.6104C13.8608 22.2822 13.8597 23.7345 14.0398 24.4346C14.6048 26.6308 16.3348 28.3341 18.5509 28.876C18.9729 28.9793 19.2252 29.0014 19.9621 28.9999C20.748 28.9983 20.9312 28.9793 21.437 28.8465C23.9465 28.1877 25.7611 26.0691 25.9782 23.5445C26.0659 22.5245 25.8875 21.4713 25.4747 20.572C25.3398 20.2781 20.1131 11.9066 19.9704 11.7558C19.9495 11.7337 19.164 12.9334 18.2249 14.4217ZM21.9053 18.0443C22.9488 19.7001 23.8639 21.2028 23.9389 21.3835C24.4093 22.518 24.365 23.8685 23.8226 24.9252C23.097 26.3389 21.7591 27.2193 20.1925 27.3138C18.9671 27.3879 17.8118 26.958 16.9287 26.0993C16.2967 25.4848 15.938 24.8544 15.7262 23.9857C15.5019 23.0662 15.6566 21.8492 16.0994 21.0499C16.4628 20.3938 19.9359 14.9574 19.9691 14.9926C19.9905 15.0152 20.8617 16.3885 21.9053 18.0443Z" fill="#FFFFFF"/>
</svg>
