<svg width="16" height="28" viewBox="0 0 16 28" fill="none" xmlns="http://www.w3.org/2000/svg">
<path fill-rule="evenodd" clip-rule="evenodd" d="M5.5901 0.0690787C4.42229 0.33935 3.40815 1.15438 2.88853 2.24017C2.43479 3.18842 2.46625 2.64995 2.44508 9.82314L2.4263 16.1882L2.20336 16.3911C1.39306 17.1281 0.77049 18.0624 0.382104 19.1244C-0.21326 20.7523 -0.107437 22.7146 0.661432 24.3027C1.33138 25.6865 2.32016 26.6884 3.67087 27.3523C6.07291 28.5329 8.88046 28.0735 10.7944 26.1866C12.8949 24.116 13.4125 20.9987 12.0958 18.35C11.7741 17.7028 11.3536 17.1306 10.7951 16.58L10.3369 16.1283L10.3226 9.68368L10.3082 3.23904L10.1637 2.80118C9.73611 1.50549 8.78907 0.563536 7.49692 0.14866C6.99841 -0.0114333 6.09991 -0.0489253 5.5901 0.0690787ZM7.21075 1.7843C7.84648 2.03175 8.35156 2.5314 8.59821 3.15694L8.71693 3.45797L8.74345 10.1354C8.77379 17.7772 8.71083 16.962 9.3055 17.4125C10.154 18.0553 10.818 19.0998 11.0887 20.2171C11.2541 20.9001 11.2525 21.9356 11.0849 22.5835C10.7016 24.0656 9.78136 25.2237 8.47483 25.8682C7.74585 26.2278 7.3058 26.3256 6.40952 26.3273C5.4829 26.329 5.0656 26.2308 4.26125 25.8216C3.03578 25.1983 2.09749 24.0087 1.73138 22.6145C1.56827 21.9933 1.56896 20.7831 1.73281 20.1515C1.97453 19.2194 2.58008 18.212 3.23374 17.6544C3.3882 17.5226 3.62886 17.3014 3.76852 17.1627L4.02255 16.9106L4.0242 10.54C4.02515 6.77845 4.04679 4.00142 4.07703 3.75901C4.20083 2.76604 4.89984 1.95474 5.85256 1.69815C6.21262 1.60116 6.843 1.64117 7.21075 1.7843ZM12.483 3.29219C11.8636 3.52338 11.764 4.38718 12.3162 4.73933C12.4869 4.84814 12.567 4.85366 13.9799 4.85366C15.4321 4.85366 15.4681 4.85098 15.6392 4.73051C16.144 4.37497 16.1142 3.67286 15.5805 3.34851C15.4149 3.2478 15.292 3.238 14.0478 3.22602C12.9762 3.21573 12.6511 3.22946 12.483 3.29219ZM6.06071 6.6032C5.92841 6.6726 5.79973 6.79881 5.72918 6.92831L5.61386 7.13997V12.6426V18.1453L5.41495 18.2117C3.82581 18.7426 2.86848 20.5165 3.27845 22.1707C3.58192 23.3949 4.45968 24.3006 5.64617 24.6138C7.392 25.0745 9.19209 23.8941 9.57151 22.0398C9.72492 21.2901 9.57735 20.3844 9.1905 19.7012C8.85187 19.1031 8.144 18.4923 7.51543 18.2558L7.20666 18.1396L7.19266 12.5953C7.17876 7.09224 7.17786 7.04987 7.06928 6.89985C6.79446 6.52006 6.42596 6.41169 6.06071 6.6032ZM12.5772 6.5471C12.3303 6.6101 12.1533 6.7449 12.0512 6.94769C11.8636 7.32064 11.9854 7.82418 12.3132 8.03036C12.471 8.12964 12.5888 8.13725 13.9737 8.13742C15.4325 8.13764 15.4681 8.13501 15.6392 8.01449C16.144 7.65894 16.1142 6.95683 15.5805 6.63248C15.4147 6.53172 15.2953 6.52225 14.0743 6.51327C13.345 6.50785 12.6713 6.52313 12.5772 6.5471ZM12.5772 9.83069C12.33 9.89429 12.1532 10.029 12.0512 10.2317C11.8636 10.6046 11.9854 11.1082 12.3132 11.3143C12.471 11.4136 12.5888 11.4212 13.9737 11.4214C15.4325 11.4216 15.4681 11.419 15.6392 11.2985C16.144 10.9429 16.1142 10.2408 15.5805 9.91645C15.4148 9.81569 15.2949 9.80617 14.0743 9.79686C13.345 9.79128 12.6713 9.8065 12.5772 9.83069ZM12.5772 13.1147C12.33 13.1783 12.1532 13.313 12.0512 13.5156C11.8636 13.8886 11.9854 14.3921 12.3132 14.5983C12.471 14.6976 12.5888 14.7052 13.9737 14.7054C15.4325 14.7056 15.4681 14.703 15.6392 14.5824C16.144 14.2269 16.1142 13.5248 15.5805 13.2004C15.4148 13.0997 15.2949 13.0901 14.0743 13.0808C13.345 13.0753 12.6713 13.0905 12.5772 13.1147ZM7.12116 19.8732C7.69976 20.1653 8.02211 20.7055 8.02211 21.383C8.02211 22.0661 7.70039 22.5998 7.10763 22.9002C6.85928 23.026 6.73855 23.0521 6.40952 23.0512C5.75268 23.0493 5.24208 22.7273 4.93586 22.1219C4.74474 21.744 4.73498 21.1021 4.91422 20.6988C5.30218 19.8259 6.29309 19.4551 7.12116 19.8732Z" fill="#FFFFFF"/>
</svg>
