<svg width="15" height="16" viewBox="0 0 15 16" fill="none" xmlns="http://www.w3.org/2000/svg">
<path fill-rule="evenodd" clip-rule="evenodd" d="M5.21308 0.0340415C3.91081 0.209639 2.67966 0.85526 1.74518 1.85264C-0.0228826 3.73971 -0.499926 6.60041 0.555296 8.98819C1.42727 10.9613 3.16623 12.3265 5.16329 12.6058C6.64512 12.8131 8.16241 12.4068 9.37365 11.4786C9.51763 11.3682 9.64576 11.2779 9.65839 11.2779C9.67102 11.2779 10.6508 12.3118 11.8358 13.5753C14.1065 15.9968 14.109 15.9992 14.3712 16C14.5006 16.0004 14.7537 15.8869 14.8312 15.7937C14.9157 15.6922 15 15.4597 15 15.3285C15 15.0492 14.9978 15.0466 12.7286 12.6224C11.5447 11.3577 10.5761 10.3134 10.5761 10.3017C10.5761 10.29 10.6617 10.1513 10.7664 9.99342C11.4946 8.89532 11.8635 7.67033 11.865 6.34534C11.867 4.63143 11.251 3.04604 10.1149 1.84079C9.22021 0.891669 8.1159 0.290088 6.85422 0.0644756C6.45621 -0.00671444 5.62902 -0.0220409 5.21308 0.0340415ZM6.61977 1.37933C7.95618 1.60842 9.09706 2.37946 9.8213 3.54312C10.36 4.4086 10.6074 5.27411 10.6107 6.30464C10.6123 6.80091 10.5791 7.10162 10.4724 7.55663C10.0599 9.31608 8.73795 10.727 7.08945 11.1673C6.66314 11.2812 6.38139 11.3166 5.91642 11.3149C4.95088 11.3114 4.13995 11.0473 3.32905 10.4724C2.03487 9.55477 1.25735 7.9996 1.25688 6.32776C1.25665 5.48674 1.41827 4.78207 1.78506 4.02465C2.37772 2.80088 3.43001 1.88992 4.70022 1.50101C5.23579 1.33704 6.06606 1.2844 6.61977 1.37933Z" fill="#2F2E2E"/>
</svg>
