<svg width="17" height="22" viewBox="0 0 17 22" fill="none" xmlns="http://www.w3.org/2000/svg">
<path fill-rule="evenodd" clip-rule="evenodd" d="M9.40328 0.0272105C10.6217 0.171108 11.8469 0.594627 12.8289 1.21141C13.4662 1.61171 13.8459 1.92346 14.4207 2.51823C15.2332 3.35908 15.685 4.02123 16.1664 5.07707C16.6975 6.24162 16.9451 7.28511 16.9931 8.56053C17.0687 10.5658 16.5188 12.4534 15.4521 13.8502C15.3256 14.0158 13.8115 15.8862 12.0873 18.0066C8.76118 22.097 8.84845 21.9998 8.50147 21.9998C8.15479 21.9998 8.24165 22.0965 4.9157 18.0066C3.1913 15.8862 1.67706 14.0158 1.55072 13.8502C-0.000460029 11.8173 -0.430634 8.7482 0.454245 6.02758C0.61859 5.5223 1.03155 4.61794 1.31049 4.15244C2.63068 1.94926 4.738 0.489909 7.18268 0.0858703C7.66935 0.00544964 8.93559 -0.0280088 9.40328 0.0272105ZM7.55558 1.59103C4.89893 1.96126 2.69674 3.87587 1.8442 6.5565C1.55881 7.45395 1.5015 7.83614 1.4987 8.86157C1.49587 9.90312 1.55096 10.3087 1.80689 11.1295C2.00209 11.7556 2.25786 12.2783 2.60163 12.7536C2.95855 13.2471 8.45657 20 8.50139 20C8.54589 20 14.043 13.2482 14.3941 12.7624C14.8778 12.0928 15.2044 11.3023 15.4101 10.3023C15.4906 9.91056 15.503 9.72525 15.503 8.90457C15.503 8.08437 15.4906 7.89837 15.4102 7.50689C14.8134 4.60263 12.878 2.45471 10.214 1.7403C9.4509 1.53568 8.38302 1.47573 7.55558 1.59103ZM8.99213 4.58775C10.6614 4.79018 12.0402 6.06086 12.4938 7.81481C12.5719 8.11697 12.5865 8.28189 12.5865 8.86157C12.5865 9.44283 12.572 9.60642 12.4927 9.91521C12.0798 11.5234 10.8674 12.7374 9.33241 13.0793C8.91131 13.1731 8.09164 13.1731 7.67054 13.0793C6.12791 12.7356 4.92942 11.5336 4.50915 9.90832C4.38457 9.42657 4.37455 8.33789 4.49037 7.87244C4.94092 6.06228 6.32591 4.78996 8.07007 4.58388C8.48467 4.53489 8.55904 4.53519 8.99213 4.58775ZM7.72083 6.21698C7.04619 6.45144 6.4836 6.94463 6.17007 7.5763C5.95646 8.00666 5.87334 8.36214 5.87256 8.84871C5.87174 9.35424 5.92749 9.60552 6.14661 10.0834C6.49642 10.8464 7.17775 11.3995 7.9759 11.5684C8.57662 11.6956 9.11481 11.6185 9.69298 11.3227C10.2003 11.0631 10.6047 10.6323 10.8563 10.0834C11.0755 9.60552 11.1312 9.35424 11.1304 8.84871C11.1296 8.36214 11.0465 8.00666 10.8329 7.5763C10.4639 6.83286 9.73801 6.28032 8.91234 6.11441C8.67301 6.06633 7.9835 6.12567 7.72083 6.21698Z" fill="#2F2E2E"/>
</svg>
